<?xml version="1.0" standalone="no"?>
<!DOCTYPE svg PUBLIC "-//W3C//DTD SVG 20010904//EN"
 "http://www.w3.org/TR/2001/REC-SVG-20010904/DTD/svg10.dtd">
<svg version="1.0" xmlns="http://www.w3.org/2000/svg"
 width="1024.000000pt" height="1024.000000pt" viewBox="0 0 1024.000000 1024.000000"
 preserveAspectRatio="xMidYMid meet">

<g transform="translate(0.000000,1024.000000) scale(0.100000,-0.100000)"
fill="#000000" stroke="none">
<path d="M0 5120 l0 -5120 5120 0 5120 0 0 5120 0 5120 -5120 0 -5120 0 0
-5120z m4108 4078 c8 -8 12 -52 12 -133 0 -127 -6 -145 -45 -145 -38 0 -45 19
-45 116 l0 91 -42 -7 c-52 -10 -58 -7 -58 29 0 22 7 31 28 39 60 24 132 28
150 10z m2363 -11 c42 -29 59 -60 59 -115 0 -88 -50 -142 -130 -142 -47 0 -92
20 -114 52 -21 29 -21 129 -1 168 31 61 124 79 186 37z m-1001 -297 c449 -33
878 -148 1285 -344 509 -246 876 -524 1211 -921 149 -176 405 -547 464 -672
l31 -64 114 108 115 108 1 490 c2 663 4 611 -31 652 -24 27 -30 43 -30 79 0
53 23 97 57 113 13 6 46 11 74 11 42 0 55 -5 87 -34 33 -31 37 -40 37 -84 0
-56 -23 -91 -77 -113 l-30 -12 8 -566 7 -566 -140 -133 -141 -132 58 -133 c50
-116 137 -361 156 -440 3 -15 9 -29 13 -32 4 -2 49 32 99 77 l92 80 0 73 c0
71 0 73 -30 85 -54 22 -60 41 -60 185 0 143 6 162 60 190 38 19 142 19 180 0
53 -28 60 -48 60 -183 0 -151 -10 -177 -75 -194 l-45 -12 0 -87 0 -86 -87 -84
c-49 -47 -107 -99 -130 -118 l-41 -33 14 -47 c76 -258 113 -911 70 -1261 -15
-129 -46 -326 -62 -402 l-6 -28 124 0 c180 0 168 -18 168 245 l0 213 -37 19
c-48 23 -62 61 -62 166 -1 98 16 141 63 164 l36 17 0 315 c0 315 0 316 -22
326 -83 38 -82 176 1 223 45 25 88 28 134 8 50 -21 70 -50 74 -109 5 -64 -11
-96 -60 -122 l-37 -20 0 -310 1 -310 42 -20 c52 -25 66 -60 66 -165 0 -106
-14 -140 -66 -165 l-43 -19 0 -221 c0 -312 -3 -315 -252 -318 l-152 -2 -66
-210 c-78 -245 -107 -318 -193 -492 -76 -153 -121 -226 -131 -216 -4 4 -5 1
-2 -7 3 -8 -4 -26 -15 -40 -20 -24 -21 -25 -16 -2 3 13 1 20 -5 16 -5 -4 -8
-17 -5 -30 2 -12 0 -29 -5 -36 -7 -10 -8 -8 -4 5 4 12 0 17 -14 17 -15 0 -20
-7 -21 -27 0 -16 -3 -23 -5 -17 -3 6 -16 9 -30 6 -24 -4 -25 -3 -12 18 10 18
10 24 1 27 -21 8 4 42 26 38 14 -2 18 1 14 11 -3 7 -10 11 -17 7 -6 -4 -4 4 5
17 47 72 174 333 224 457 162 409 251 841 262 1278 14 549 -63 979 -264 1475
-138 343 -397 744 -691 1073 -317 354 -815 692 -1302 885 -435 172 -915 255
-1370 238 -368 -13 -680 -71 -1030 -191 -608 -209 -1193 -606 -1575 -1070
-203 -247 -349 -474 -485 -750 -244 -497 -350 -975 -350 -1576 0 -589 109
-1078 345 -1550 36 -71 63 -135 59 -141 -4 -6 -3 -8 4 -4 11 7 28 -30 23 -53
-1 -7 2 -10 8 -7 6 4 9 -5 6 -24 -2 -22 1 -30 11 -30 8 0 12 -5 9 -10 -3 -6 1
-17 9 -26 9 -9 13 -20 10 -26 -4 -6 -11 -3 -17 8 -13 23 -28 34 -39 28 -5 -3
-17 -2 -29 1 -14 5 -18 12 -14 25 6 20 -10 36 -20 20 -4 -6 4 -27 16 -48 16
-26 18 -33 6 -24 -27 22 -229 435 -286 586 -29 76 -67 190 -84 252 l-33 114
-139 3 c-152 4 -185 13 -224 63 -20 26 -21 37 -21 392 l0 364 -23 -5 c-94 -21
-87 -22 -87 10 0 24 8 33 52 59 l53 30 0 384 c0 251 -3 385 -10 384 -5 -1 -24
-5 -41 -8 -27 -6 -32 -4 -38 16 -4 17 1 29 19 45 25 22 111 53 147 53 18 0 18
-31 18 -832 -1 -730 1 -833 14 -847 12 -11 46 -16 137 -19 l122 -5 -7 34 c-4
19 -18 102 -31 184 -38 245 -48 406 -42 707 6 288 22 451 71 693 l25 120 -32
29 c-18 15 -76 69 -129 118 l-98 89 0 75 c0 69 -2 74 -21 74 -12 0 -36 15 -55
34 l-34 34 0 113 c0 71 5 123 13 139 27 55 149 79 224 43 50 -23 63 -62 63
-185 0 -120 -18 -164 -70 -175 -29 -5 -30 -7 -30 -60 0 -50 3 -56 38 -86 20
-17 63 -57 95 -87 47 -44 60 -51 67 -40 6 8 10 20 10 26 0 33 91 288 148 418
l65 149 -59 56 c-33 31 -96 91 -142 134 l-82 78 0 630 0 631 -24 -6 c-13 -3
-32 -9 -41 -12 -14 -6 -16 -1 -13 27 3 31 9 37 69 68 39 20 72 32 82 28 16 -6
17 -59 17 -666 l0 -659 116 -109 c64 -59 119 -109 122 -110 4 -2 29 40 57 93
103 201 343 532 538 744 390 425 926 771 1498 968 262 90 611 166 884 191 130
12 379 12 535 1z m-2590 -25 c83 -43 79 -193 -6 -225 l-24 -10 0 -207 0 -207
-37 -38 c-20 -21 -41 -38 -45 -38 -4 0 -8 110 -8 245 l0 244 -29 15 c-32 17
-61 70 -61 111 0 40 29 94 59 110 35 19 115 19 151 0z m4779 -11 c38 -32 54
-86 41 -135 -11 -40 -32 -63 -72 -78 l-28 -10 -2 -231 -3 -231 -42 36 -43 37
0 199 c0 166 -2 199 -14 199 -21 0 -53 45 -60 86 -9 47 9 98 45 129 25 20 41
25 89 25 48 0 64 -5 89 -26z m-2019 -313 c598 -88 1111 -307 1605 -685 413
-316 819 -847 1029 -1347 108 -259 197 -591 236 -884 20 -151 30 -450 20 -615
-20 -334 -97 -708 -205 -1000 -184 -497 -499 -967 -891 -1331 -540 -501 -1286
-826 -1984 -864 -58 -3 -130 -8 -160 -10 -77 -7 -393 11 -530 30 -127 18 -401
81 -525 121 -170 56 -409 159 -585 254 -904 485 -1575 1450 -1724 2480 -45
308 -47 706 -6 975 96 635 328 1166 727 1665 97 121 332 359 438 444 466 373
990 625 1520 731 94 18 213 39 265 44 52 6 109 13 125 15 82 12 516 -4 645
-23z m-3403 -511 c54 -33 65 -67 61 -192 -3 -106 -4 -111 -31 -134 -15 -13
-37 -24 -48 -24 -17 0 -19 -7 -19 -67 -1 -97 -13 -138 -57 -187 -21 -24 -40
-45 -43 -45 -3 -1 -4 66 -2 149 3 142 2 150 -16 150 -11 0 -31 12 -45 26 -31
31 -43 102 -34 205 9 107 41 138 142 139 42 0 69 -6 92 -20z m6114 3 c45 -27
59 -68 59 -178 0 -110 -13 -145 -60 -165 l-30 -12 0 -147 0 -146 -45 47 -45
47 -1 85 c-2 114 -1 110 -24 114 -75 12 -95 50 -95 182 0 113 12 150 58 174
38 21 146 21 183 -1z m798 -3972 c37 -27 56 -84 47 -137 -9 -46 -55 -94 -90
-94 l-26 0 0 -331 0 -331 -81 -76 c-45 -42 -90 -83 -100 -90 -16 -11 -19 -26
-19 -83 l0 -69 39 6 c48 8 101 -9 135 -43 25 -25 26 -29 26 -164 0 -133 -1
-138 -26 -168 -43 -51 -132 -62 -206 -25 -56 29 -58 37 -58 304 l0 245 -152
153 -153 153 28 20 c15 12 27 26 27 33 0 7 66 -52 148 -130 81 -79 153 -144
160 -144 8 0 43 25 78 56 l64 56 0 318 c0 302 -1 318 -20 335 -26 24 -43 80
-36 118 21 102 131 148 215 88z m-7721 5 c59 -30 78 -136 35 -195 -23 -30 -23
-34 -23 -350 l0 -319 58 -56 c31 -31 62 -56 69 -56 7 0 49 35 95 77 46 42 108
99 138 127 30 28 62 63 71 76 l17 25 16 -40 c9 -22 15 -49 12 -60 -3 -11 -69
-81 -146 -154 l-141 -133 3 -247 c3 -223 1 -248 -15 -272 -50 -74 -211 -70
-261 5 -13 20 -16 51 -16 157 l0 131 34 34 c32 32 38 34 100 34 l66 0 0 75 c0
41 -4 75 -9 75 -4 0 -47 36 -95 81 l-86 81 0 333 0 332 -39 7 c-92 14 -122
149 -49 218 25 24 39 28 85 28 29 0 66 -6 81 -14z m6784 -808 c-7 -7 -12 -8
-12 -2 0 14 12 26 19 19 2 -3 -1 -11 -7 -17z m116 -740 l2 -365 26 -14 c53
-28 74 -131 40 -197 -29 -56 -115 -78 -181 -46 -50 23 -69 59 -70 127 0 55 2
61 36 91 20 18 42 35 50 38 12 4 15 59 17 322 l4 318 -42 -7 c-41 -7 -41 -6
-38 20 2 22 14 31 68 55 36 15 70 27 75 26 6 -2 11 -135 13 -368z m-6149 343
c11 -11 22 -17 25 -13 3 3 6 -2 6 -10 0 -9 7 -19 16 -22 9 -3 12 -11 8 -18 -5
-7 -2 -9 9 -5 23 9 31 -40 15 -88 -9 -26 -24 -47 -46 -60 l-33 -20 5 -65 c3
-36 6 -142 6 -236 l0 -171 25 -11 c35 -16 65 -70 65 -117 0 -108 -96 -172
-195 -131 -92 39 -102 198 -15 249 l29 17 1 233 0 232 -30 17 c-38 22 -53 60
-47 121 3 35 12 56 32 77 40 42 94 51 124 21z m631 -791 c0 -5 9 -12 20 -15
19 -6 20 -15 20 -170 0 -154 1 -164 20 -170 10 -3 31 -20 45 -36 24 -29 25
-37 25 -147 0 -127 -7 -152 -53 -186 -23 -17 -43 -21 -97 -21 -123 0 -155 48
-148 222 6 132 15 146 111 177 15 5 17 23 17 185 0 174 1 179 20 174 11 -3 20
-9 20 -13z m4839 -211 l1 -136 31 -7 c17 -3 44 -19 60 -35 l29 -29 0 -127 0
-127 -33 -33 c-56 -56 -170 -59 -231 -5 l-31 28 0 135 c0 121 2 137 20 157 11
12 30 26 41 30 21 8 22 16 25 169 2 87 7 162 10 165 3 3 18 7 32 8 15 1 28 7
28 13 1 5 5 -8 10 -30 4 -22 8 -101 8 -176z m-4249 -296 c0 -55 21 -83 61 -83
36 0 59 24 59 63 0 41 9 53 42 59 29 5 38 -10 38 -70 0 -85 -53 -132 -150
-132 -46 0 -56 4 -85 33 -37 37 -51 87 -40 143 4 26 10 33 17 26 8 -8 15 -6
25 4 22 22 33 8 33 -43z m3695 -70 c-7 -41 -62 -89 -113 -98 -48 -8 -114 16
-142 53 -14 17 -20 40 -20 77 0 53 0 53 34 57 33 4 34 2 39 -35 7 -50 22 -67
63 -67 37 0 64 29 64 68 0 16 9 27 33 37 l32 13 8 -36 c4 -20 5 -51 2 -69z
m-645 -119 c0 -48 2 -52 28 -59 15 -3 39 -18 55 -33 27 -26 27 -27 27 -159 0
-128 -1 -135 -24 -158 -48 -48 -148 -55 -215 -14 -43 26 -51 53 -51 170 0 122
14 163 65 184 34 15 35 17 35 68 l0 52 40 0 40 0 0 -51z m-2406 24 c3 3 6 -13
6 -35 0 -35 4 -43 37 -64 21 -13 43 -35 50 -49 18 -35 17 -211 -1 -255 -19
-45 -66 -69 -136 -69 -71 0 -117 24 -137 72 -12 30 -14 59 -9 146 8 125 20
150 77 168 36 10 39 14 39 48 0 46 4 50 40 40 16 -4 31 -6 34 -2z"/>
<path d="M6362 9118 c-7 -7 -12 -26 -12 -43 0 -38 16 -55 52 -55 30 0 48 23
48 62 0 31 -18 48 -50 48 -14 0 -31 -5 -38 -12z"/>
<path d="M8728 8369 c-22 -12 -23 -52 -4 -68 8 -7 27 -11 43 -9 22 2 29 9 31
31 6 48 -29 71 -70 46z"/>
<path d="M8942 6808 c-17 -17 -16 -169 1 -192 10 -13 24 -17 57 -14 l45 3 3
91 c2 74 0 95 -13 108 -19 19 -76 21 -93 4z"/>
<path d="M1398 6769 c-15 -8 -18 -25 -18 -98 0 -102 8 -114 67 -109 l38 3 3
95 c2 80 0 97 -15 107 -20 15 -51 16 -75 2z"/>
<path d="M9096 5974 c-30 -30 -13 -74 29 -74 46 0 60 48 23 74 -28 20 -33 20
-52 0z"/>
<path d="M9092 5100 c-22 -9 -23 -14 -20 -97 3 -86 4 -88 31 -97 50 -18 62 -1
65 98 3 85 2 86 -23 96 -15 6 -27 10 -28 9 -1 0 -12 -4 -25 -9z"/>
<path d="M2782 8788 c-30 -30 -2 -86 37 -73 29 9 36 42 15 66 -20 22 -35 24
-52 7z"/>
<path d="M7542 8788 c-17 -17 -15 -53 3 -68 12 -10 21 -10 40 -2 40 19 29 82
-15 82 -9 0 -21 -5 -28 -12z"/>
<path d="M5140 8166 l0 -226 50 0 50 0 0 70 0 70 34 0 c31 0 37 -6 81 -75 44
-71 48 -75 83 -75 20 0 48 -3 62 -7 l25 -7 -20 30 c-34 52 -85 138 -85 143 0
3 15 13 33 21 101 47 103 200 3 253 -35 18 -61 22 -178 25 l-138 4 0 -226z
m245 124 c28 -11 46 -47 38 -78 -7 -29 -51 -44 -119 -40 l-59 3 -3 63 -3 62
60 0 c33 0 71 -4 86 -10z"/>
<path d="M4685 8342 c-82 -14 -151 -26 -153 -28 -4 -2 66 -456 71 -459 1 -1
77 12 170 28 l167 30 0 42 c0 23 -2 44 -5 46 -2 3 -59 -4 -125 -15 -66 -11
-121 -18 -124 -15 -2 2 -6 21 -9 42 -7 44 -10 41 91 57 l72 12 0 44 c0 49 -9
53 -80 35 -19 -5 -49 -12 -67 -15 -31 -5 -32 -4 -39 40 -3 25 -4 48 0 51 4 4
56 14 117 22 60 9 110 19 109 24 0 4 0 25 0 47 0 48 12 47 -195 12z"/>
<path d="M5710 8354 c0 -4 27 -76 61 -160 l60 -152 -25 -83 c-14 -46 -22 -86
-18 -90 4 -3 26 -9 48 -13 l41 -6 27 81 c25 74 35 90 131 197 58 64 102 118
99 121 -3 3 -24 11 -47 18 l-42 13 -72 -77 c-63 -69 -72 -76 -79 -58 -51 139
-78 192 -101 199 -45 12 -83 17 -83 10z"/>
<path d="M6295 8163 c-8 -19 -15 -40 -15 -45 0 -5 29 -23 65 -39 36 -16 65
-33 65 -39 0 -5 -34 -79 -75 -165 l-74 -156 42 -19 c51 -23 67 -25 67 -6 0 8
26 68 58 133 32 65 64 134 70 152 l12 33 67 -36 c36 -20 67 -35 68 -33 1 1 11
16 23 34 12 17 22 34 22 38 0 6 -216 112 -333 163 l-47 21 -15 -36z"/>
<path d="M4105 8170 c-65 -13 -190 -67 -189 -82 1 -7 32 -104 69 -215 l68
-201 101 35 c124 43 144 54 178 90 35 36 48 73 48 132 0 110 -64 210 -152 236
-56 16 -64 17 -123 5z m127 -129 c27 -30 48 -86 48 -128 0 -34 -43 -77 -99
-97 -29 -10 -54 -16 -57 -14 -7 8 -93 243 -89 246 2 2 25 10 52 17 67 20 112
12 145 -24z"/>
<path d="M6801 7899 c-13 -24 -19 -44 -14 -48 6 -3 33 -21 60 -39 28 -18 54
-39 57 -47 2 -7 -17 -42 -43 -77 -60 -79 -154 -219 -149 -222 1 -1 20 -15 41
-30 21 -16 42 -24 47 -20 4 5 49 71 99 147 50 75 96 137 102 137 6 0 34 -17
62 -37 l50 -37 29 33 c16 18 28 36 26 41 -3 8 -332 240 -340 240 -1 0 -14 -19
-27 -41z"/>
<path d="M3521 7886 c-49 -18 -111 -74 -132 -120 -65 -144 60 -337 218 -336
50 0 116 25 161 61 92 72 98 209 12 317 -65 83 -164 113 -259 78z m149 -112
c38 -33 70 -93 70 -134 0 -49 -54 -101 -113 -107 -45 -5 -49 -4 -91 38 -53 54
-71 107 -52 154 32 76 124 100 186 49z"/>
<path d="M4985 7764 c-16 -2 -45 -7 -62 -10 l-33 -5 0 -84 c0 -72 -3 -88 -20
-105 -24 -24 -46 -26 -54 -4 -3 9 -6 51 -6 95 0 69 -2 79 -18 79 -28 0 -249
-56 -347 -88 -182 -60 -413 -166 -570 -262 -533 -326 -909 -794 -1099 -1371
-139 -420 -175 -846 -110 -1287 37 -259 122 -527 239 -758 82 -160 218 -379
289 -464 82 -97 219 -239 226 -235 4 3 7 -1 6 -8 -2 -25 235 -216 421 -338
264 -173 637 -313 988 -371 106 -17 617 -17 736 0 241 35 581 144 807 259 259
132 454 276 667 494 367 375 554 719 679 1245 41 174 56 303 63 529 10 360
-34 643 -157 1000 -175 508 -573 990 -1075 1300 -146 90 -382 204 -528 254
-96 33 -256 76 -394 106 -22 5 -23 2 -24 -47 -2 -129 -23 -173 -63 -133 -12
13 -16 37 -16 105 0 82 -1 88 -22 95 -26 8 -476 16 -523 9z m570 -399 c149
-71 315 -149 370 -175 l99 -48 -38 -16 c-21 -9 -45 -16 -52 -16 -37 0 3 -24
204 -124 119 -60 208 -106 198 -102 -16 5 -17 4 -6 -9 7 -8 16 -12 21 -9 5 3
9 0 9 -5 0 -6 5 -11 11 -11 5 0 7 5 4 10 -8 13 5 13 25 0 13 -8 12 -10 -3 -10
-10 0 -20 -7 -24 -16 -5 -13 -7 -13 -15 -2 -5 8 -6 3 -2 -14 4 -20 2 -28 -7
-28 -8 -1 1 -7 19 -15 17 -8 32 -19 32 -25 0 -6 -3 -10 -7 -8 -5 2 -269 133
-589 292 l-580 287 -55 -24 c-30 -14 -247 -120 -484 -237 -236 -117 -480 -236
-541 -265 -105 -49 -143 -75 -111 -75 15 0 51 -67 61 -113 4 -15 10 -25 15
-23 14 9 34 -22 28 -44 -3 -11 -1 -20 5 -20 5 0 7 -4 4 -9 -3 -5 1 -12 10 -15
8 -3 13 -2 10 3 -3 4 6 6 19 3 14 -2 25 -10 25 -18 0 -7 6 -11 14 -8 8 3 17 0
22 -7 4 -8 3 -10 -4 -5 -7 4 -12 5 -12 2 0 -3 23 -17 51 -31 43 -22 53 -24 67
-13 15 11 15 11 5 -2 -10 -13 -8 -18 8 -28 11 -7 25 -10 31 -6 6 4 8 3 4 -4
-3 -6 2 -13 12 -16 12 -4 54 13 113 45 131 71 270 145 434 229 77 39 145 76
152 82 7 6 13 23 13 38 0 35 32 76 65 82 35 7 38 -1 12 -36 -38 -50 -39 -54
-13 -49 38 8 39 -13 2 -45 -33 -28 -108 -72 -481 -279 -99 -55 -199 -112 -222
-126 l-43 -27 0 -95 0 -95 -39 19 c-21 11 -41 26 -44 34 -5 14 -336 181 -547
277 -238 108 -455 211 -463 219 -11 11 163 100 463 236 360 163 779 356 1100
508 l305 145 35 -18 c19 -10 157 -75 305 -145z m-1147 41 c12 -28 8 -33 -46
-60 -39 -20 -57 -16 -65 13 -4 17 3 27 31 46 46 31 66 31 80 1z m1684 4 c58
-25 60 -28 42 -61 l-15 -29 -49 25 c-59 30 -63 36 -44 63 18 26 12 26 66 2z
m-1892 -101 c16 -29 7 -45 -40 -69 -40 -21 -42 -21 -56 -3 -21 28 -17 40 23
68 46 30 59 31 73 4z m2100 -1 c42 -24 49 -42 27 -72 -13 -18 -16 -18 -60 8
-46 27 -50 40 -24 74 12 16 11 16 57 -10z m-2320 -150 c0 -4 -27 -23 -61 -43
-58 -36 -61 -36 -74 -19 -25 34 -17 50 43 82 l57 31 17 -22 c10 -12 18 -25 18
-29z m2564 10 c57 -38 62 -46 42 -73 -14 -19 -14 -19 -50 0 -20 11 -49 29 -63
41 -22 17 -24 23 -14 42 16 29 27 28 85 -10z m-1218 -146 c45 -23 85 -63 108
-109 24 -49 20 -49 -26 -3 -105 104 -232 114 -336 24 -56 -48 -75 -86 -82
-164 -6 -64 -6 -64 -19 -35 -17 39 -9 121 17 171 32 62 102 119 165 135 48 12
130 3 173 -19z m1454 6 c0 -7 -13 -22 -28 -33 l-27 -20 25 32 c29 36 30 38 30
21z m-2707 -295 c-7 -2 -19 -2 -25 0 -7 3 -2 5 12 5 14 0 19 -2 13 -5z m2777
-43 c0 -3 -30 -19 -67 -35 -157 -68 -562 -264 -1055 -512 l-528 -264 0 -65 c0
-35 -3 -64 -7 -64 -5 0 -93 41 -196 92 l-188 93 3 74 c3 66 6 76 29 93 26 20
26 20 75 -2 27 -12 102 -49 167 -81 l118 -59 527 256 c290 141 628 306 752
365 124 60 240 117 259 127 32 18 37 18 73 3 21 -9 38 -18 38 -21z m-365 12
c-3 -3 -11 0 -18 7 -9 10 -8 11 6 5 10 -3 15 -9 12 -12z m783 -331 c7 -46 -49
-69 -83 -35 -37 37 16 99 60 70 11 -7 21 -23 23 -35z m-4023 15 c19 -29 8 -61
-26 -71 -41 -13 -78 52 -47 83 20 20 56 14 73 -12z m1445 -86 c0 -5 -5 -10
-11 -10 -5 0 -7 5 -4 10 3 6 8 10 11 10 2 0 4 -4 4 -10z m-1292 -12 c9 -9 12
-95 12 -324 l0 -313 31 -22 c57 -40 74 -118 39 -176 -23 -39 -67 -63 -115 -63
-135 0 -185 169 -71 239 l35 22 3 315 c3 267 5 316 18 324 20 13 34 12 48 -2z
m3603 2 c18 -10 19 -24 19 -320 l0 -310 39 -24 c55 -35 79 -98 60 -158 -20
-62 -67 -91 -138 -85 -45 3 -59 9 -82 35 -53 59 -50 134 6 187 l33 31 7 320
c8 341 9 348 56 324z m-3253 -46 c22 -15 22 -19 22 -240 l0 -224 -35 0 c-23 0
-38 6 -42 15 -3 9 -2 117 2 240 8 237 9 240 53 209z m2950 -227 l2 -237 -35 0
-35 0 0 228 c0 228 0 229 23 240 12 6 27 9 32 8 6 -2 11 -92 13 -239z m-2013
206 c36 -16 65 -31 65 -35 0 -4 -9 -12 -20 -18 -18 -10 -20 -21 -20 -110 0
-64 -4 -100 -11 -100 -18 0 -49 20 -49 33 0 7 -23 25 -51 40 -39 22 -49 32
-44 45 18 41 26 112 15 132 -25 48 21 53 115 13z m42 1 c-3 -3 -12 -4 -19 -1
-8 3 -5 6 6 6 11 1 17 -2 13 -5z m-1663 -40 c3 -9 6 -208 6 -443 0 -422 0
-428 21 -447 49 -44 63 -118 34 -174 -22 -43 -53 -60 -108 -60 -88 0 -137 46
-137 130 0 55 26 97 72 117 l38 17 0 419 c0 269 4 425 10 438 13 23 55 25 64
3z m4317 -64 c1 -23 2 -23 9 5 4 17 8 -224 9 -535 l1 -566 -40 4 -40 4 0 347
c0 191 3 449 7 574 l6 226 23 -17 c13 -9 24 -28 25 -42z m-3292 -14 l28 -15 6
-203 c4 -112 7 -254 7 -316 l0 -113 -42 3 -43 3 -2 328 c-1 206 2 327 8 327 6
0 23 -6 38 -14z m2291 -260 l0 -274 -40 15 -40 16 0 242 0 241 33 17 c17 8 35
16 40 16 4 1 7 -122 7 -273z m-2025 117 l35 -17 0 -182 0 -182 68 -16 c56 -14
398 -174 389 -182 -2 -2 -36 7 -77 20 -41 13 -151 40 -245 60 -93 20 -180 38
-192 41 l-23 5 0 235 c0 129 2 235 5 235 2 0 20 -8 40 -17z m327 -257 c68 -40
147 -85 176 -100 48 -25 71 -43 37 -30 -8 4 -15 1 -15 -5 0 -6 4 -11 9 -11 5
0 11 -10 14 -23 5 -16 39 -40 124 -86 191 -104 194 -105 186 -143 -3 -18 -7
-34 -8 -36 -2 -2 -126 66 -276 149 -151 84 -298 166 -326 182 l-53 29 0 74 c0
41 2 74 4 74 2 0 60 -33 128 -74z m-914 -42 c37 -26 20 -94 -24 -94 -49 0 -73
59 -38 94 19 20 34 20 62 0z m2920 -6 c20 -20 15 -66 -9 -78 -30 -17 -68 -4
-75 24 -9 36 12 66 44 66 16 0 33 -5 40 -12z m-1688 -133 c0 -3 -18 4 -40 15
-22 11 -40 23 -40 25 0 3 18 -4 40 -15 22 -11 40 -23 40 -25z m1264 -77 c-4
-13 -9 -132 -11 -265 l-4 -243 -28 0 -29 0 -7 213 c-6 185 -5 218 9 252 22 51
34 65 58 65 17 0 19 -4 12 -22z m-1774 -102 c41 -7 125 -30 185 -50 164 -55
286 -128 387 -233 l48 -49 6 -844 7 -845 -94 91 c-160 154 -298 233 -509 292
-89 25 -108 27 -300 27 -188 -1 -214 -3 -311 -27 -58 -15 -144 -40 -192 -57
l-87 -30 2 827 3 826 60 18 c74 23 234 56 328 68 95 12 372 4 467 -14z m1580
-152 l0 -164 -25 0 c-78 0 -284 -59 -392 -112 -63 -31 -63 -31 -63 -75 l0 -43
58 28 c103 52 308 112 385 112 30 0 37 -4 37 -19 0 -10 -11 -26 -25 -35 -13
-9 -36 -36 -50 -60 -22 -38 -32 -45 -68 -51 -69 -12 -218 -63 -282 -98 -55
-29 -60 -35 -63 -69 -2 -21 1 -38 6 -38 5 0 45 16 88 36 65 30 243 84 275 84
5 0 9 -31 9 -70 l0 -69 -37 -6 c-105 -18 -340 -114 -335 -137 1 -5 2 -23 2
-41 l0 -33 75 37 c82 39 186 75 253 85 l42 7 0 -70 0 -69 -80 -18 c-73 -17
-253 -90 -283 -115 -8 -6 -11 -26 -9 -49 l4 -39 76 37 c43 21 111 48 152 59
41 12 87 26 103 30 24 8 28 7 33 -17 17 -82 68 -148 134 -176 52 -21 161 -28
277 -18 119 10 163 33 204 105 24 42 24 42 24 352 l0 310 -27 47 c-15 25 -44
56 -63 68 -35 21 -35 22 -35 93 0 40 -3 136 -7 215 l-6 142 29 0 c33 0 66 -8
207 -51 l97 -30 0 -825 c0 -783 -1 -826 -17 -818 -63 28 -253 84 -336 99 -147
26 -417 17 -545 -19 -209 -58 -336 -130 -482 -272 l-105 -102 3 841 2 842 53
53 c100 101 234 182 384 231 106 34 297 72 316 63 4 -2 7 -77 7 -168z m-2608
-988 l3 -855 75 35 c114 54 163 71 305 101 114 24 151 27 300 26 119 0 187 -5
225 -16 l55 -15 -110 3 c-228 6 -441 -37 -715 -144 -117 -46 -113 -45 -105
-31 3 6 3 15 0 20 -9 14 -45 -7 -45 -25 0 -21 -27 -18 -39 4 -7 12 -11 320
-11 885 l0 866 30 0 30 0 2 -854z m3558 -16 c0 -835 -1 -870 -18 -879 -13 -7
-23 -6 -30 1 -9 9 -12 238 -12 880 l0 868 30 0 30 0 0 -870z m-3634 804 l1
-49 -4 45 c-2 24 -10 48 -16 53 -8 6 -7 7 3 4 11 -2 15 -18 16 -53z m-301 -63
c56 -32 70 -72 70 -206 0 -94 -4 -127 -17 -151 -47 -86 -220 -86 -282 -1 -19
25 -21 43 -21 160 0 141 9 172 59 199 53 29 138 28 191 -1z m4414 13 c68 -27
76 -49 76 -209 0 -122 -2 -144 -20 -169 -24 -36 -71 -56 -132 -56 -60 0 -111
25 -140 69 -21 30 -23 46 -23 148 0 127 12 169 59 202 47 34 119 40 180 15z
m-4182 -56 c-3 -7 -5 -2 -5 12 0 14 2 19 5 13 2 -7 2 -19 0 -25z m3052 -81
c-11 -9 -15 -30 -15 -84 l1 -71 -52 5 c-45 5 -54 3 -76 -20 -23 -22 -28 -23
-45 -11 -17 12 -21 12 -26 -2 -10 -26 -7 -84 6 -107 8 -15 11 -74 10 -182 -1
-126 1 -155 10 -135 10 22 12 23 16 6 3 -15 6 -16 13 -5 7 11 9 11 9 -2 0 -9
7 -20 16 -23 8 -3 13 -10 9 -15 -3 -5 5 -12 17 -14 13 -2 4 -5 -19 -6 -28 -1
-43 3 -44 12 0 10 -2 10 -6 0 -6 -16 -47 -17 -74 -3 -44 24 -49 54 -49 315 0
267 4 293 55 333 25 20 40 22 144 22 93 -1 113 -3 100 -13z m31 -231 c0 -19
-11 -49 -25 -70 -23 -34 -25 -44 -27 -201 l-3 -164 -25 14 c-14 8 -32 17 -40
21 -29 13 -50 37 -50 56 0 10 6 18 13 17 6 -1 31 -1 55 0 l42 1 0 116 c0 106
2 119 26 160 18 31 24 52 20 70 -5 17 -3 23 4 19 5 -3 10 -21 10 -39z m185
-1091 c143 -36 360 -125 305 -125 -6 0 -10 -8 -8 -17 4 -22 12 -23 -172 37
-235 77 -486 119 -640 107 -56 -5 -60 -4 -25 4 148 36 386 33 540 -6z m-2204
-241 c51 -26 69 -81 68 -209 0 -130 -12 -171 -58 -202 -45 -30 -141 -32 -188
-3 -54 32 -67 63 -71 165 -7 150 22 234 88 258 33 12 132 6 161 -9z m1858 -18
c37 -36 51 -95 51 -219 0 -109 -17 -153 -70 -179 -44 -22 -131 -23 -175 -2
-62 29 -70 53 -70 204 0 116 3 140 19 167 29 48 69 64 148 61 58 -3 71 -8 97
-32z m-1479 -178 l0 -130 100 -95 100 -95 0 -69 0 -69 -35 0 c-35 0 -35 0 -35
44 0 44 -2 47 -105 143 l-105 98 0 151 c0 83 2 153 5 155 2 3 20 3 40 1 l35
-4 0 -130z m980 -17 l0 -159 -100 -94 c-87 -81 -101 -98 -107 -133 -7 -44 -17
-55 -50 -55 -22 0 -23 4 -23 68 l0 68 100 93 100 92 0 133 c0 73 3 136 7 139
3 4 21 7 40 7 l33 0 0 -159z"/>
<path d="M3332 5558 c-20 -20 -14 -66 9 -79 31 -16 69 3 69 35 0 45 -49 73
-78 44z"/>
<path d="M6966 5554 c-22 -22 -20 -61 4 -74 48 -26 91 30 55 70 -22 24 -38 25
-59 4z"/>
<path d="M2977 5222 c-10 -10 -17 -26 -17 -35 0 -15 35 -47 52 -47 11 0 48 38
48 50 0 15 -38 50 -53 50 -8 0 -21 -8 -30 -18z"/>
<path d="M4826 5588 c3 -4 9 -8 15 -8 5 0 9 4 9 8 0 5 -7 9 -15 9 -8 0 -12 -4
-9 -9z"/>
<path d="M4780 5586 c0 -2 7 -7 16 -10 8 -3 12 -2 9 4 -6 10 -25 14 -25 6z"/>
<path d="M4089 5020 c-42 -4 -100 -13 -128 -20 -51 -12 -51 -12 -51 -51 0 -43
5 -45 60 -29 70 20 247 29 365 19 163 -14 314 -56 493 -136 8 -4 12 7 12 35 0
38 -2 40 -57 67 -203 96 -462 139 -694 115z"/>
<path d="M4047 4789 c-31 -5 -75 -13 -97 -19 -38 -10 -40 -12 -40 -51 0 -38 2
-41 23 -36 134 33 373 41 497 18 88 -16 284 -78 342 -107 65 -33 70 -31 66 18
l-3 43 -85 37 c-207 90 -485 129 -703 97z"/>
<path d="M4080 4554 c-14 -3 -58 -12 -97 -20 l-73 -15 0 -43 0 -43 53 14 c28
7 104 19 169 25 201 20 389 -10 605 -97 48 -19 91 -35 96 -35 4 0 7 17 5 37
-3 34 -8 40 -58 65 -158 80 -281 107 -505 113 -93 2 -181 2 -195 -1z"/>
<path d="M4077 4319 c-38 -4 -90 -13 -118 -20 l-49 -13 0 -44 c0 -38 2 -43 18
-37 110 45 458 46 625 2 54 -15 135 -42 180 -62 45 -20 87 -37 92 -38 6 -1 11
17 13 39 l3 41 -93 41 c-198 86 -438 119 -671 91z"/>
<path d="M2980 4862 c-42 -13 -50 -32 -50 -126 0 -109 13 -136 65 -136 52 0
65 27 65 136 0 74 -3 94 -17 106 -23 19 -44 26 -63 20z"/>
<path d="M7376 4848 c-12 -17 -16 -48 -16 -120 0 -89 2 -98 22 -112 30 -21 61
-20 81 2 26 28 24 212 -1 235 -26 24 -68 21 -86 -5z"/>
<path d="M4252 3164 c-20 -14 -22 -23 -22 -123 0 -120 10 -141 66 -141 49 0
54 14 54 135 0 96 -3 114 -18 128 -23 21 -51 22 -80 1z"/>
<path d="M6092 3164 c-20 -14 -22 -23 -22 -124 0 -122 8 -140 64 -140 51 0 56
13 56 132 0 95 -2 110 -20 128 -24 24 -48 25 -78 4z"/>
<path d="M3048 7514 c-85 -26 -148 -122 -148 -225 0 -114 119 -229 238 -229
83 0 195 74 222 146 12 31 13 144 2 144 -5 0 -28 -7 -53 -15 -43 -15 -44 -16
-41 -53 7 -71 -75 -132 -156 -116 -41 8 -88 60 -102 112 -9 35 -8 48 6 78 24
49 68 76 117 70 34 -4 39 -1 48 22 5 15 13 35 19 44 8 14 6 19 -13 22 -63 13
-96 13 -139 0z"/>
<path d="M7300 7501 c-108 -35 -193 -143 -194 -246 0 -86 74 -182 162 -210
101 -31 223 25 283 129 45 80 37 160 -27 243 -49 65 -158 106 -224 84z m118
-121 c31 -19 62 -71 62 -103 0 -26 -54 -96 -90 -116 -47 -26 -86 -27 -127 -1
-42 25 -56 54 -50 105 11 105 121 166 205 115z"/>
<path d="M2810 6986 c-13 -18 -24 -36 -23 -41 1 -9 123 -105 134 -105 11 0 59
64 59 78 0 12 -121 102 -136 102 -5 0 -20 -15 -34 -34z"/>
<path d="M7491 6970 c-35 -27 -66 -52 -69 -55 -3 -3 11 -23 32 -44 l38 -39 74
56 74 56 -37 38 c-20 21 -40 38 -43 38 -3 0 -34 -22 -69 -50z"/>
<path d="M7740 6861 c-81 -25 -176 -105 -186 -156 -12 -64 78 -199 141 -211
72 -13 225 100 225 168 0 48 -90 198 -120 198 -4 0 -14 2 -22 4 -7 2 -24 1
-38 -3z m47 -88 c3 -10 20 -37 36 -61 l30 -42 -24 -26 c-13 -14 -44 -39 -68
-55 -41 -28 -44 -29 -62 -13 -11 10 -32 40 -48 67 -33 57 -34 54 49 110 61 41
78 45 87 20z"/>
<path d="M2602 6847 c-41 -23 -111 -146 -112 -196 0 -31 67 -96 139 -135 99
-53 154 -26 221 107 24 49 27 62 18 87 -12 36 -61 78 -139 119 -61 33 -91 37
-127 18z m118 -102 c85 -52 85 -51 38 -123 -22 -34 -45 -62 -51 -62 -14 0
-136 93 -137 103 0 19 66 117 79 117 7 0 39 -16 71 -35z"/>
<path d="M2416 6339 c-16 -4 -39 -18 -52 -30 -24 -23 -94 -185 -94 -220 0 -48
123 -119 206 -119 47 0 75 30 124 132 46 95 48 113 17 158 -39 59 -135 96
-201 79z m99 -91 c32 -16 45 -28 45 -42 0 -34 -78 -166 -98 -166 -28 1 -102
38 -109 56 -3 9 10 49 33 95 43 90 53 94 129 57z"/>
<path d="M7928 6326 c-79 -21 -131 -68 -130 -119 0 -35 61 -184 89 -217 21
-26 32 -30 74 -30 57 0 143 35 178 73 30 33 26 73 -15 170 -52 122 -96 150
-196 123z m120 -151 c23 -47 42 -87 42 -89 0 -9 -122 -56 -131 -50 -12 7 -94
174 -87 178 1 1 11 8 20 15 24 18 89 40 103 35 6 -3 30 -43 53 -89z"/>
<path d="M2270 5859 c-10 -24 -16 -47 -12 -50 11 -9 173 -71 177 -67 3 3 35
79 35 83 0 3 -115 52 -166 72 -9 3 -20 -9 -34 -38z"/>
<path d="M8047 5707 c-60 -19 -107 -62 -107 -98 0 -32 20 -114 46 -187 26 -70
93 -89 201 -57 77 23 103 48 103 99 0 58 -44 204 -69 229 -25 25 -117 33 -174
14z m142 -136 c35 -114 35 -113 -36 -132 -47 -13 -65 -14 -76 -6 -20 16 -63
165 -51 177 12 12 116 38 131 33 6 -3 21 -35 32 -72z"/>
<path d="M2237 5659 c-44 -12 -54 -25 -81 -107 -42 -132 -42 -138 -4 -176 60
-60 207 -87 247 -47 19 19 53 113 66 184 10 52 -14 91 -77 120 -61 29 -111 38
-151 26z m106 -90 c21 -6 41 -17 44 -26 3 -8 -5 -48 -17 -89 -21 -65 -27 -74
-47 -74 -28 0 -123 46 -123 60 0 5 12 41 26 80 30 79 19 75 117 49z"/>
<path d="M8073 5119 c-55 -16 -67 -46 -71 -183 -4 -118 -3 -122 20 -144 53
-49 217 -54 263 -8 20 20 24 37 30 142 9 133 2 158 -50 183 -36 17 -149 24
-192 10z m165 -149 c2 -41 0 -90 -3 -109 l-6 -34 -64 5 c-34 3 -68 9 -74 12
-12 8 -16 162 -5 191 5 13 19 15 78 13 l71 -3 3 -75z"/>
<path d="M2143 5038 c-37 -18 -47 -59 -40 -175 8 -135 16 -146 117 -151 91 -5
137 4 166 33 22 22 24 32 24 120 0 123 -14 160 -67 174 -48 14 -171 13 -200
-1z m182 -153 l0 -90 -70 0 -70 0 -5 80 c-3 44 -4 86 -2 93 3 9 24 12 76 10
l71 -3 0 -90z"/>
<path d="M2214 4465 c-68 -34 -80 -60 -59 -134 42 -149 56 -181 85 -196 89
-46 260 21 260 102 0 13 -14 65 -30 117 -38 119 -57 136 -144 136 -46 0 -75
-6 -112 -25z m181 -137 c16 -48 26 -90 22 -94 -17 -17 -112 -42 -124 -33 -12
10 -63 153 -63 175 0 17 70 44 105 41 28 -2 32 -7 60 -89z"/>
<path d="M8051 4470 c-18 -4 -42 -16 -52 -27 -22 -21 -79 -176 -79 -214 0 -35
45 -75 113 -99 95 -34 154 -23 183 31 24 48 66 207 59 228 -10 33 -50 60 -110
76 -65 16 -65 16 -114 5z m89 -80 c64 -18 64 -19 38 -105 -13 -43 -30 -82 -39
-88 -11 -7 -33 -5 -72 8 -65 20 -66 24 -41 113 25 86 37 94 114 72z"/>
<path d="M7783 3930 c-13 -21 -23 -41 -23 -44 0 -6 174 -96 185 -96 11 0 46
83 38 90 -13 13 -157 90 -168 90 -5 0 -20 -18 -32 -40z"/>
<path d="M2544 3927 c-34 -17 -72 -39 -85 -48 l-24 -16 20 -37 c11 -21 25 -41
30 -46 8 -6 147 69 171 92 6 6 -37 88 -46 88 -3 0 -33 -15 -66 -33z"/>
<path d="M7660 3733 c-32 -22 -43 -36 -80 -104 -52 -98 -40 -131 77 -209 97
-65 130 -67 183 -11 21 22 50 64 65 95 43 87 22 136 -88 207 -67 44 -116 50
-157 22z m113 -92 c80 -55 81 -58 43 -126 -19 -35 -40 -59 -49 -59 -20 2 -128
74 -134 91 -6 15 72 123 88 123 6 0 29 -13 52 -29z"/>
<path d="M2635 3719 c-92 -49 -136 -95 -137 -148 -1 -34 72 -163 106 -186 32
-23 86 -18 141 14 63 36 135 113 135 144 0 30 -62 134 -100 170 -38 34 -88 36
-145 6z m127 -119 l38 -54 -27 -23 c-55 -47 -103 -75 -116 -70 -22 8 -80 118
-69 129 26 26 109 77 122 75 8 -1 31 -27 52 -57z"/>
<path d="M7435 3380 c-24 -25 -35 -43 -30 -49 29 -26 135 -111 140 -111 7 0
70 71 70 80 0 5 -67 62 -131 111 -6 5 -26 -7 -49 -31z"/>
<path d="M2872 3358 c-39 -29 -71 -57 -72 -62 0 -13 51 -86 60 -86 3 0 39 25
79 56 49 38 70 61 67 71 -7 18 -49 72 -57 72 -3 1 -37 -23 -77 -51z"/>
<path d="M3101 3249 c-30 -12 -142 -128 -166 -172 -28 -53 -15 -95 49 -155 94
-89 147 -83 252 32 63 68 84 100 84 131 0 21 -94 130 -133 154 -38 23 -50 25
-86 10z m129 -172 c0 -19 -113 -137 -132 -137 -25 0 -88 62 -88 86 0 10 30 49
68 87 l67 68 42 -48 c23 -27 42 -52 43 -56z"/>
<path d="M7240 3233 c-65 -25 -157 -143 -145 -185 12 -39 156 -177 195 -188
70 -19 166 35 203 113 22 46 11 80 -42 139 -95 106 -157 141 -211 121z m111
-140 c38 -36 69 -71 69 -77 0 -20 -64 -76 -88 -76 -31 0 -72 30 -118 86 l-37
45 43 44 c25 25 48 45 53 45 5 0 40 -30 78 -67z"/>
<path d="M6873 2937 c-42 -20 -43 -22 -44 -71 0 -28 -4 -73 -7 -99 l-7 -48
-74 46 c-63 39 -78 45 -95 35 -39 -21 -69 -47 -63 -56 3 -5 58 -36 123 -69 65
-33 124 -67 131 -75 7 -8 25 -41 40 -72 15 -32 33 -58 38 -58 6 0 27 11 47 25
l37 25 -45 79 -44 80 6 140 c4 78 5 141 3 140 -2 0 -23 -10 -46 -22z"/>
<path d="M3605 2851 c-3 -5 -74 -53 -158 -107 -83 -53 -155 -100 -160 -104 -4
-3 13 -21 38 -39 l46 -33 23 21 c12 12 26 21 30 21 17 0 126 -92 126 -106 0
-9 -5 -24 -10 -34 -9 -17 -4 -23 41 -45 28 -15 52 -25 54 -23 1 2 21 89 44
193 23 105 44 196 46 203 5 15 -66 62 -94 62 -11 0 -22 -4 -26 -9z m11 -124
c-3 -12 -10 -46 -16 -75 l-12 -52 -30 17 c-62 37 -62 44 -5 90 60 48 71 52 63
20z"/>
<path d="M6403 2654 c-33 -14 -38 -25 -64 -141 -7 -29 -17 -53 -22 -53 -6 0
-42 23 -80 51 -69 50 -71 51 -109 40 -22 -7 -41 -18 -44 -25 -4 -11 123 -356
142 -387 5 -9 87 16 91 28 2 5 -17 57 -42 117 -24 59 -39 104 -32 100 6 -4 38
-25 70 -47 32 -21 61 -37 63 -34 3 2 18 42 33 88 l29 84 14 -35 c8 -19 27 -69
43 -110 16 -41 30 -77 31 -79 2 -2 23 5 49 14 53 21 55 6 -20 185 -29 69 -60
146 -70 173 -19 51 -29 55 -82 31z"/>
<path d="M3935 2481 c-76 -82 -140 -152 -142 -157 -1 -5 17 -21 42 -36 l44
-26 23 30 23 29 70 -29 c69 -30 70 -31 73 -71 3 -38 7 -42 49 -61 25 -11 47
-20 48 -20 1 0 5 93 9 206 4 114 10 213 13 220 4 12 -84 65 -104 63 -4 0 -71
-67 -148 -148z m151 -128 c-2 -3 -26 5 -51 16 -35 15 -45 24 -38 33 5 7 27 35
49 62 l39 49 3 -78 c2 -42 1 -80 -2 -82z"/>
<path d="M5869 2466 c-2 -2 -62 -16 -133 -30 -71 -15 -132 -29 -136 -31 -7 -4
29 -266 50 -363 l12 -53 36 6 c21 3 90 16 155 28 l118 21 -7 41 c-3 22 -9 43
-13 47 -3 3 -51 -4 -106 -17 -55 -12 -100 -22 -101 -21 -1 0 -4 20 -8 44 -6
41 -5 42 21 42 16 0 51 6 78 14 l50 13 -3 39 c-2 21 -5 41 -7 43 -3 2 -33 -4
-69 -13 -90 -22 -93 -22 -98 20 -5 43 5 48 126 67 77 12 81 14 78 37 -8 51
-27 81 -43 66z"/>
<path d="M4553 2413 c-16 -27 -67 -106 -111 -177 -45 -71 -82 -137 -82 -146 0
-12 11 -20 36 -24 19 -4 42 -10 50 -13 9 -3 18 5 25 26 14 39 19 39 167 6 18
-5 22 -12 22 -45 0 -31 4 -40 18 -40 9 0 34 -3 56 -7 34 -5 38 -4 33 13 -4 10
-18 96 -31 189 -40 270 -31 242 -88 254 -27 6 -53 11 -57 11 -4 0 -21 -21 -38
-47z m85 -168 c5 -38 9 -71 7 -73 -3 -3 -108 17 -113 23 -3 2 15 34 38 70 24
36 46 62 50 58 4 -4 12 -39 18 -78z"/>
<path d="M5038 2375 c-5 -5 -8 -100 -8 -211 l0 -204 26 -6 c45 -11 209 3 249
21 73 35 111 155 85 264 -25 105 -67 131 -229 138 -64 3 -119 2 -123 -2z m229
-107 c36 -30 41 -143 9 -193 -15 -22 -23 -25 -81 -25 l-65 0 0 121 0 122 62
-7 c35 -4 68 -12 75 -18z"/>
<path d="M2116 7957 c-14 -10 -16 -26 -14 -102 l3 -90 45 0 45 0 5 85 c4 72 2
88 -12 103 -21 20 -47 22 -72 4z"/>
<path d="M8226 7957 c-14 -10 -16 -26 -14 -102 l3 -90 45 0 45 0 3 90 c2 76 0
92 -14 102 -10 7 -25 13 -34 13 -9 0 -24 -6 -34 -13z"/>
<path d="M9036 3984 c-9 -8 -16 -22 -16 -29 0 -20 28 -45 51 -45 27 0 45 41
30 69 -14 25 -43 27 -65 5z"/>
<path d="M8896 2754 c-12 -12 -16 -37 -16 -107 0 -51 4 -97 8 -104 11 -18 58
-26 81 -13 19 10 21 19 21 115 0 93 -2 105 -19 115 -28 14 -57 12 -75 -6z"/>
<path d="M1326 3984 c-9 -8 -16 -22 -16 -29 0 -17 27 -45 44 -45 19 0 36 22
36 45 0 41 -36 58 -64 29z"/>
<path d="M1442 2758 c-8 -8 -12 -48 -12 -115 0 -103 0 -104 27 -114 15 -6 36
-6 52 -1 25 8 26 11 29 111 2 68 -1 108 -9 117 -14 17 -71 18 -87 2z"/>
<path d="M8246 2051 c-19 -21 -15 -51 10 -72 24 -20 64 4 64 39 0 51 -41 69
-74 33z"/>
<path d="M2115 2790 c-15 -16 -17 -26 -9 -48 13 -38 57 -42 80 -8 15 24 15 28
0 51 -20 30 -47 32 -71 5z"/>
<path d="M2112 2058 c-26 -26 -3 -88 33 -88 21 0 45 29 45 54 0 28 -18 46 -45
46 -12 0 -26 -5 -33 -12z"/>
<path d="M2758 1629 c-15 -8 -18 -25 -18 -108 0 -107 2 -111 59 -111 44 0 51
16 51 110 0 72 -3 90 -18 103 -21 19 -49 21 -74 6z"/>
<path d="M7582 1628 c-8 -8 -12 -46 -12 -105 0 -89 1 -93 26 -110 24 -15 29
-15 53 -2 25 14 26 19 29 106 2 73 0 94 -13 107 -19 19 -66 21 -83 4z"/>
<path d="M6380 1230 c-12 -7 -14 -29 -12 -107 2 -54 7 -102 11 -106 5 -5 26
-7 47 -5 l39 3 3 104 c2 77 -1 107 -10 113 -18 11 -60 10 -78 -2z"/>
<path d="M3956 1225 c-12 -12 -14 -33 -10 -103 3 -48 7 -93 10 -99 6 -22 82
-16 94 6 14 28 13 184 -2 199 -17 17 -74 15 -92 -3z"/>
</g>
</svg>
